<?xml version="1.0" encoding="UTF-8" standalone="no"?>
<svg
   xmlns:dc="http://purl.org/dc/elements/1.1/"
   xmlns:cc="http://creativecommons.org/ns#"
   xmlns:rdf="http://www.w3.org/1999/02/22-rdf-syntax-ns#"
   xmlns:svg="http://www.w3.org/2000/svg"
   xmlns="http://www.w3.org/2000/svg"
   xmlns:sodipodi="http://sodipodi.sourceforge.net/DTD/sodipodi-0.dtd"
   xmlns:inkscape="http://www.inkscape.org/namespaces/inkscape"
   version="1.1"
   id="Calque_1"
   x="0px"
   y="0px"
   width="324.36951"
   height="135.17714"
   viewBox="60 51 324.36951 134.18319"
   enable-background="new 0 0 322 135"
   xml:space="preserve"
   sodipodi:docname="logo-clicpro.svg"
   inkscape:export-filename="C:\Users\Mathieu\Desktop\logo_gros.png"
   inkscape:export-xdpi="284.12042"
   inkscape:export-ydpi="284.12042"
   inkscape:version="0.92.4 (5da689c313, 2019-01-14)"><metadata
   id="metadata3757"><rdf:RDF><cc:Work
       rdf:about=""><dc:format>image/svg+xml</dc:format><dc:type
         rdf:resource="http://purl.org/dc/dcmitype/StillImage" /><dc:title></dc:title></cc:Work></rdf:RDF></metadata><defs
   id="defs3755" /><sodipodi:namedview
   pagecolor="#ffffff"
   bordercolor="#666666"
   borderopacity="1"
   objecttolerance="10"
   gridtolerance="10"
   guidetolerance="10"
   inkscape:pageopacity="0"
   inkscape:pageshadow="2"
   inkscape:window-width="1920"
   inkscape:window-height="1138"
   id="namedview3753"
   showgrid="false"
   fit-margin-top="8"
   fit-margin-left="8"
   fit-margin-right="8"
   fit-margin-bottom="8"
   inkscape:zoom="2.5"
   inkscape:cx="96.197052"
   inkscape:cy="104.15428"
   inkscape:window-x="-8"
   inkscape:window-y="-8"
   inkscape:window-maximized="1"
   inkscape:current-layer="Calque_1" />
<g
   id="g3750"
   transform="translate(0.49950871,0.05216031)">
    <path
   stroke-miterlimit="10"
   d="M 111.089,140.947 H 96.988 c -14.401,0 -26.302,-6.2 -26.602,-27.602 -0.3,-22.102 11.4,-29.102 26.301,-29.102 h 12.101 l -0.1,6.8 h -10.4 c -9.5,0 -19.001,7.401 -19.001,21.401 0,14.201 7.3,21.602 18.201,21.602 h 13.801 z"
   id="path3736"
   inkscape:connector-curvature="0"
   style="fill:#505053;stroke:#505053;stroke-width:5.76000023;stroke-miterlimit:10" />
    <path
   stroke-miterlimit="10"
   d="m 151.245,174.748 c -14.201,0 -25.526,-7.877 -25.526,-28.978 V 61.998 h 8.901 v 84.772 c 0,12.7 8.1,20.9 16.901,20.9 z"
   id="path3738"
   inkscape:connector-curvature="0"
   style="fill:#505053;stroke:#505053;stroke-width:5.76000023;stroke-miterlimit:10" />
    <path
   stroke-miterlimit="10"
   d="m 157.785,73.743 c -3.3,0.2 -6.2,-2.3 -6.4,-5.8 -0.2,-3.501 2.3,-6.401 5.5,-6.601 3.3,-0.2 6.2,2.4 6.5,5.7 0.2,3.501 -2.3,6.401 -5.6,6.701 z m -4.1,66.904 V 84.244 h 8.9 v 56.403 z"
   id="path3740"
   inkscape:connector-curvature="0"
   style="fill:#505053;stroke:#505053;stroke-width:5.76000023;stroke-miterlimit:10" />
    <path
   stroke-miterlimit="10"
   d="m 216.6,139.104 h -12.101 c -14.401,0 -26.302,-6.2 -26.602,-27.602 C 177.597,89.4 189.297,82.4 204.198,82.4 H 216.3 l -0.1,6.8 h -10.401 c -9.5,0 -19.001,7.401 -19.001,21.401 0,14.201 7.3,21.602 18.201,21.602 h 11.626 z"
   id="path3742"
   inkscape:connector-curvature="0"
   style="fill:#505053;stroke:#505053;stroke-width:5.76000023;stroke-miterlimit:10" />
    <path
   stroke-miterlimit="10"
   d="M 255.272,80.836 H 229.47 v 75.705 h 9.9 v -19.902 h 16.201 c 15.002,0 26.602,-6.801 26.303,-28.602 -0.301,-21.002 -12.102,-27.201 -26.602,-27.201 z m -15.467,50.762 -0.003,-47.21 39.213,23.603 z"
   id="path3744"
   inkscape:connector-curvature="0"
   style="fill:#004e8c;stroke:#004e8c;stroke-width:4.32000017;stroke-miterlimit:10" />
    <path
   stroke-miterlimit="10"
   d="m 301.769,114.639 v 22.5 h -8.9 v -24.201 c 0,-15.4 5.9,-31.602 25.002,-32.602 v 6.9 c -13.102,1.301 -16.102,17.702 -16.102,27.403 z"
   id="path3746"
   inkscape:connector-curvature="0"
   style="fill:#004e8c;stroke:#004e8c;stroke-width:4.32000017;stroke-miterlimit:10" />
    <path
   stroke-miterlimit="10"
   d="m 347.008,141.406 c -20.401,0 -26.702,-20.301 -26.702,-29.402 0,-8.801 6.301,-29.502 26.702,-29.502 20.501,0 26.702,20.701 26.702,29.502 0,9.101 -6.201,29.402 -26.702,29.402 z m 1,-52.103 c -14.401,0 -17.801,15.801 -17.801,22.701 0,6.4 3.399,22.701 17.801,22.701 14.501,0 17.802,-16.301 17.802,-22.701 0,-6.9 -3.301,-22.701 -17.802,-22.701 z"
   id="path3748"
   inkscape:connector-curvature="0"
   style="fill:#004e8c;stroke:#004e8c;stroke-width:4.32000017;stroke-miterlimit:10" />
</g>
</svg>