<svg xmlns="http://www.w3.org/2000/svg" xmlns:xlink="http://www.w3.org/1999/xlink" viewBox="0 0 324 69"><defs><path id="a" d="M0 .35h31.432v67.4H0z"/><path id="c" d="M.4.315h31.432v67.398H.401z"/><path id="e" d="M0 69.684h323.243V1.061H0z"/></defs><g fill="none" fill-rule="evenodd" transform="translate(.76 -1)"><g transform="translate(0 .746)"><mask id="b" fill="#fff"><use xlink:href="#a"/></mask><path fill="#003C74" d="M28.86.35H7.742C6.322.35 5.17 1.533 5.17 2.991v48.16c-.023 7.58-2.873 12.931-5.17 16.6h28.86c1.42 0 2.572-1.18 2.572-2.64V2.992c0-1.458-1.151-2.64-2.572-2.64" mask="url(#b)"/></g><g transform="translate(44.545 .746)"><mask id="d" fill="#fff"><use xlink:href="#c"/></mask><path fill="#0089CE" d="M2.971.315H24.09c1.421 0 2.572 1.181 2.572 2.64v48.161c.023 7.582 2.873 12.929 5.171 16.597H2.972c-1.42 0-2.571-1.18-2.571-2.638V2.955C.4 1.496 1.55.315 2.97.315" mask="url(#d)"/></g><path fill="#FEFEFE" d="M60.275 14.191a2.2 2.2 0 1 1-4.4-.002 2.2 2.2 0 0 1 4.4.002m-39.775 0a2.2 2.2 0 1 1-4.399-.002 2.2 2.2 0 0 1 4.4.002"/><path fill="#0089CE" d="M37.796 40.27c-9.367 0-17.582-5.033-19.976-12.239-.365-1.097.067-2.348.963-2.796.896-.445 1.92.082 2.285 1.18 1.842 5.541 8.877 10.276 16.728 10.276"/><path fill="#003C74" d="M37.796 40.27c9.7 0 18.207-5.033 20.685-12.239.377-1.097-.07-2.348-.998-2.796-.928-.445-1.988.082-2.365 1.18-1.907 5.541-9.192 10.276-17.322 10.276"/><path fill="#0089CE" d="M100.878 69.623c-11.485 0-18.51-6.416-18.51-19V26.188h9.407V50.38c0 6.964 3.483 10.568 9.225 10.568 5.743 0 9.225-3.482 9.225-10.263V26.187h9.408v24.131c0 12.952-7.27 19.305-18.755 19.305m61.762-.673V41.033l-12.036 18.266h-.243l-11.913-18.083v27.736h-9.225V26.187h10.141l11.24 18.083 11.242-18.083h10.141V68.95z"/><path fill="#9BB93C" d="M202.287 69.684c-12.584 0-21.932-9.714-21.932-21.993v-.123c0-12.157 9.164-22.115 22.299-22.115 8.063 0 12.89 2.689 16.861 6.598l-5.987 6.902c-3.3-2.991-6.66-4.824-10.936-4.824-7.209 0-12.401 5.987-12.401 13.317v.122c0 7.331 5.07 13.44 12.401 13.44 4.887 0 7.881-1.953 11.241-5.009l5.987 6.049c-4.398 4.704-9.286 7.636-17.533 7.636m25.046-.734V26.188h9.407v34.211h21.322v8.553z"/><mask id="f" fill="#fff"><use xlink:href="#e"/></mask><path fill="#9BB93C" d="M265.574 68.95h9.407V26.186h-9.407zm40.137.734c-12.585 0-21.933-9.714-21.933-21.993v-.123c0-12.157 9.165-22.115 22.299-22.115 8.064 0 12.89 2.689 16.861 6.598l-5.986 6.902c-3.3-2.991-6.66-4.824-10.937-4.824-7.208 0-12.4 5.987-12.4 13.317v.122c0 7.331 5.07 13.44 12.4 13.44 4.889 0 7.882-1.953 11.243-5.009l5.986 6.049c-4.399 4.704-9.287 7.636-17.533 7.636" mask="url(#f)"/></g></svg>